# xmcd
#
# Track frame offsets: 
#        150
#        26100
#        50347
#        72362
#        91377
#        108762
#        125737
#        139272
#        161620
#        181917
#        202517
#        218825
#        235460
#        253907
#        272242
#
# Disc length: 3823 seconds
#
# Revision: 7
# Processed by: cddbd v1.5.2PL0 Copyright (c) Steve Scherf et al.
# Submitted via: ExactAudioCopy v0.99pb5
#
DISCID=dc0eed0f
DTITLE=David Byrne - Rei Momo
DYEAR=1989
DGENRE=Latin
TTITLE0=Independence Day (Cumbia)
TTITLE1=Make Believe Mambo (Orïsa)
TTITLE2=The Call of the Wild (Merengue)
TTITLE3=Dirty Old Town (Mapeyé)
TTITLE4=The Rose Tattoo (Bomba/Mozambique)
TTITLE5=Loco de Amor (Salsa/Reggae)
TTITLE6=The Dream Police (Cha Cha Cha)
TTITLE7=Don't Want to Be Part of Your World (Samba)
TTITLE8=Marching Through the Wilderness (Charanga)
TTITLE9=Good and Evil (Rumba/Llesa)
TTITLE10=Lie to Me (Merengue)
TTITLE11=Office Cowboy (Pagode)
TTITLE12=Women vs. Men (Bolero)
TTITLE13=Carnival Eyes (Mapeyé)
TTITLE14=I Know Sometimes a Man Is Wrong
EXTD=YEAR: 1989
EXTT0=
EXTT1=
EXTT2=
EXTT3=
EXTT4=
EXTT5=
EXTT6=
EXTT7=
EXTT8=
EXTT9=
EXTT10=
EXTT11=
EXTT12=
EXTT13=
EXTT14=
PLAYORDER=
